Motion_pu04
version=1
nRows=13
nColumns=43
inDegrees=yes
endheader
time	pelvis_tilt	pelvis_list	pelvis_rotation	pelvis_tx	pelvis_ty	pelvis_tz	hip_flexion_r	hip_adduction_r	hip_rotation_r	knee_angle_r	ankle_angle_r	subtalar_angle_r	mtp_angle_r	hip_flexion_l	hip_adduction_l	hip_rotation_l	knee_angle_l	ankle_angle_l	subtalar_angle_l	mtp_angle_l	lumbar_extension	lumbar_bending	lumbar_rotation	neck_flexion	neck_lateral_bending	neck_rotation	arm_flex_r	arm_add_r	arm_rot_r	elbow_flex_r	pro_sup_r	wrist_flex_r	wrist_dev_r	hand_finger_flex_r	arm_flex_l	arm_add_l	arm_rot_l	elbow_flex_l	pro_sup_l	wrist_flex_l	wrist_dev_l	hand_finger_flex_l
      1.25500000	      1.45065760	    -24.02960610	     90.18012893	      0.00025020	      0.62695102	      0.43697047	     90.77333395	     -3.23615521	     -0.59086769	   -105.79249580	     24.54325363	      5.30118145	     12.82507256	     92.95174411	     -4.43678520	      2.95832199	   -105.66813359	     15.65831643	      8.81156834	     28.27880834	    -67.51768619	      0.09782900	      1.24869809	     40.94876320	      1.11460352	     -3.70699506	     43.99760134	    -27.63701299	     -4.36929630	    109.25575433	    113.55270401	    -18.87030213	    -24.99999983	     -4.96512504	     32.93558490	    -21.95158827	    -16.54494444	     92.04252927	    109.14070769	    -41.54985194	    -23.94915709	      3.62105762
      1.25750000	      1.44915986	    -24.01095006	     90.15859523	      0.00024187	      0.62699194	      0.43669837	     90.73817406	     -3.23671073	     -0.59862368	   -105.80436720	     24.54163195	      5.29878977	     12.82661923	     92.91815864	     -4.44832592	      2.95600537	   -105.68177092	     15.65524815	      8.81014789	     28.27949789	    -67.41464983	      0.11518820	      1.25383811	     40.95159627	      1.11844902	     -3.71211663	     44.01288162	    -27.64768211	     -4.37305054	    109.26431621	    113.55160040	    -18.86851276	    -24.99999983	     -4.96546132	     32.97702617	    -21.97289114	    -16.56779485	     92.07221177	    109.13975258	    -41.55486918	    -23.95544346	      3.61905340
      1.26000000	      1.52790730	    -23.94490035	     90.01660901	      0.00046233	      0.62714761	      0.43639337	     90.60323536	     -3.10117035	     -0.76737548	   -105.75236289	     24.61044248	      5.14860218	     12.93455385	     92.85047859	     -4.73037764	      2.92133139	   -105.74885617	     15.69227222	      8.70546968	     28.33506524	    -67.37764303	     -0.00167958	      1.25247945	     40.89660600	      1.38000051	     -4.00881082	     44.19046056	    -27.85760049	     -4.10514941	    109.14422829	    113.49914651	    -18.65778005	    -24.99999983	     -4.96389717	     32.97050942	    -22.02410106	    -16.77616562	     92.25003403	    109.07274121	    -41.62950422	    -24.06556751	      3.59216861
      1.26250000	      1.52490269	    -23.91984788	     89.99444622	      0.00042514	      0.62716231	      0.43613526	     90.57486867	     -3.10401075	     -0.77362038	   -105.76213265	     24.60773172	      5.14798445	     12.93583055	     92.82024273	     -4.73177699	      2.92160231	   -105.75968580	     15.68959305	      8.70462788	     28.33572318	    -67.28133063	      0.01662222	      1.25167632	     40.89837384	      1.38081884	     -4.01045266	     44.20859851	    -27.86171971	     -4.11307120	    109.15983220	    113.49709417	    -18.65858044	    -24.99999983	     -4.96522768	     33.00437045	    -22.04247381	    -16.79195748	     92.27195979	    109.07184491	    -41.63218144	    -24.06981774	      3.59108954
      1.26500000	      1.52090902	    -23.92236811	     89.97295624	      0.00040173	      0.62728445	      0.43580488	     90.53079890	     -3.11132964	     -0.79359424	   -105.77692664	     24.60390777	      5.14781922	     12.93901794	     92.77578005	     -4.73586504	      2.92083367	   -105.78131555	     15.68729215	      8.70125563	     28.33746467	    -67.18029116	      0.01531191	      1.24567260	     40.88997130	      1.38097756	     -4.01346433	     44.22936028	    -27.87458980	     -4.11333022	    109.17949033	    113.49481608	    -18.65437855	    -24.99999983	     -4.96599795	     33.06834503	    -22.07852192	    -16.82347185	     92.30640867	    109.06857917	    -41.63660039	    -24.07603502	      3.58941391
      1.26750000	      1.51652397	    -23.90837777	     89.94495888	      0.00044245	      0.62730685	      0.43552890	     90.49228306	     -3.11731959	     -0.81971301	   -105.78261963	     24.60082411	      5.14891063	     12.94259198	     92.74126230	     -4.74115624	      2.92235029	   -105.79837539	     15.68717416	      8.69598314	     28.33939999	    -67.08409934	      0.01402611	      1.22675606	     40.87600760	      1.38176625	     -4.01456250	     44.24840772	    -27.89595543	     -4.10847136	    109.19964160	    113.49347401	    -18.64730781	    -24.99999983	     -4.96571643	     33.14016329	    -22.11566317	    -16.85283803	     92.34457440	    109.06539673	    -41.63978147	    -24.08262603	      3.58834929
      1.27000000	      1.48914439	    -23.78668397	     89.86138311	      0.00046492	      0.62741247	      0.43531051	     90.36046720	     -3.13546758	     -0.88697021	   -105.76033725	     24.64283964	      5.13768523	     13.05873254	     92.61198181	     -4.81332188	      2.86160954	   -105.82201233	     15.75672299	      8.53985322	     28.39511436	    -67.07396293	     -0.05002088	      1.12099093	     40.57869313	      1.51882974	     -3.94004066	     44.39841427	    -28.17196933	     -3.83026373	    109.12752764	    113.42636989	    -18.42817869	    -24.99999983	     -4.96140172	     33.21276630	    -22.26607124	    -16.90312410	     92.41224008	    108.97324463	    -41.59508188	    -24.09318470	      3.63289856
      1.27250000	      1.48919469	    -23.76664087	     89.83635578	      0.00037850	      0.62739994	      0.43502730	     90.32775024	     -3.13400609	     -0.89278079	   -105.76956006	     24.64028014	      5.13864734	     13.06009199	     92.58120522	     -4.80803694	      2.86401840	   -105.83686836	     15.75426610	      8.53856708	     28.39575019	    -66.97806645	     -0.03342889	      1.11227038	     40.57936234	      1.51644099	     -3.93689491	     44.41667862	    -28.17524795	     -3.83926082	    109.14260785	    113.42394775	    -18.42961244	    -24.99999983	     -4.96288082	     33.24915025	    -22.28034875	    -16.91361247	     92.43475852	    108.97264045	    -41.59617144	    -24.09683887	      3.63277756
      1.27500000	      1.48143155	    -23.77134461	     89.81522964	      0.00036406	      0.62747345	      0.43468265	     90.27784866	     -3.13485297	     -0.90540341	   -105.77844335	     24.63857045	      5.14041338	     13.06339594	     92.53870136	     -4.79629604	      2.87454788	   -105.86600394	     15.75321020	      8.53416594	     28.39741755	    -66.87659332	     -0.04068875	      1.09310227	     40.56820832	      1.50496745	     -3.92430601	     44.43703346	    -28.18521066	     -3.84192651	    109.16034658	    113.42096032	    -18.42753550	    -24.99999983	     -4.96410682	     33.32030113	    -22.30669744	    -16.93112104	     92.47002479	    108.97089137	    -41.59649475	    -24.10173292	      3.63346401
      1.27750000	      1.38067211	    -23.63530216	     89.73814762	      0.00033027	      0.62753975	      0.43446497	     90.11733179	     -3.15272869	     -0.84949111	   -105.75135551	     24.80182302	      5.14237440	     13.21311118	     92.36649868	     -4.73794225	      2.83147895	   -105.87760077	     15.83517642	      8.38237007	     28.45916796	    -66.85489004	     -0.08181228	      1.00442760	     40.18245929	      1.35751340	     -3.40214189	     44.53539606	    -28.39319691	     -3.66740923	    109.09802319	    113.31459294	    -18.28188137	    -24.99999983	     -4.99063290	     33.53651378	    -22.40252564	    -16.84907962	     92.37591820	    108.88509145	    -41.48971653	    -24.04245476	      3.73761716
      1.28000000	      1.38208365	    -23.61221260	     89.71372319	      0.00024352	      0.62745298	      0.43419193	     90.08468484	     -3.15286572	     -0.85489382	   -105.76189340	     24.79969830	      5.14349192	     13.21444746	     92.33876730	     -4.73791594	      2.83558246	   -105.89405884	     15.83323216	      8.38123122	     28.45980329	    -66.75738515	     -0.06520989	      0.99480439	     40.18470737	      1.35515480	     -3.39911178	     44.55352989	    -28.39674729	     -3.67727469	    109.11203107	    113.31235751	    -18.28388513	    -24.99999983	     -4.99213743	     33.57221750	    -22.41450982	    -16.85716881	     92.39857303	    108.88524441	    -41.49089655	    -24.04649914	      3.73776646
      1.28250000	      1.35938050	    -23.60212292	     89.66328785	      0.00035498	      0.62741888	      0.43392312	     90.03177546	     -3.15470949	     -0.89896283	   -105.76040307	     24.81656297	      5.14986612	     13.23087666	     92.31861311	     -4.72909472	      2.88175010	   -105.96311055	     15.84765763	      8.36691584	     28.46810712	    -66.66749922	     -0.11871472	      0.95361275	     40.14580606	      1.31813914	     -3.35495881	     44.57455624	    -28.41094431	     -3.66518851	    109.11801126	    113.30153552	    -18.27341978	    -24.99999983	     -4.99637725	     33.72352715	    -22.45558278	    -16.86947053	     92.45094885	    108.88125120	    -41.48579699	    -24.05281794	      3.74642596
      1.28500000	      1.35557200	    -23.59080095	     89.64044181	      0.00034325	      0.62730691	      0.43362634	     89.98554844	     -3.15214386	     -0.90418202	   -105.77595724	     24.81940918	      5.15089168	     13.23445329	     92.28087483	     -4.73230377	      2.89019055	   -105.98535975	     15.84780446	      8.36472719	     28.46975469	    -66.55618014	     -0.10898888	      0.95067503	     40.14130907	      1.31294941	     -3.34568867	     44.59758660	    -28.41823882	     -3.66992080	    109.13231635	    113.29878612	    -18.27271756	    -24.99999983	     -4.99770080	     33.76763089	    -22.47132191	    -16.87434976	     92.47243118	    108.88115930	    -41.48491330	    -24.05566820	      3.74812842
